<svg xmlns="http://www.w3.org/2000/svg" width="400" height="400" viewBox="0 0 400 400">
  <defs>
    <!-- Advanced stone pattern with realistic texture -->
    <pattern id="stoneWall" width="80" height="80" patternUnits="userSpaceOnUse">
      <!-- Base layer -->
      <rect width="80" height="80" fill="#1a1a1a"/>
      
      <!-- Large stone blocks with proper perspective -->
      <rect x="2" y="2" width="76" height="36" fill="#2a2523" stroke="#0f0d0a" stroke-width="2"/>
      <rect x="2" y="40" width="36" height="36" fill="#252018" stroke="#0f0d0a" stroke-width="2"/>
      <rect x="42" y="40" width="34" height="36" fill="#2a2523" stroke="#0f0d0a" stroke-width="2"/>
      
      <!-- Inner stone details -->
      <rect x="4" y="4" width="72" height="32" fill="#363026"/>
      <rect x="4" y="42" width="32" height="32" fill="#2f281c"/>
      <rect x="44" y="42" width="30" height="32" fill="#363026"/>
      
      <!-- Realistic highlights and shadows -->
      <rect x="4" y="4" width="72" height="2" fill="#4a4136"/>
      <rect x="4" y="4" width="2" height="32" fill="#4a4136"/>
      <rect x="4" y="42" width="32" height="2" fill="#3d3529"/>
      <rect x="4" y="42" width="2" height="32" fill="#3d3529"/>
      <rect x="44" y="42" width="30" height="2" fill="#4a4136"/>
      <rect x="44" y="42" width="2" height="32" fill="#4a4136"/>
      
      <!-- Deep shadows -->
      <rect x="74" y="6" width="2" height="30" fill="#0a0805"/>
      <rect x="6" y="34" width="70" height="2" fill="#0a0805"/>
      <rect x="34" y="44" width="2" height="30" fill="#0a0805"/>
      <rect x="72" y="44" width="2" height="30" fill="#0a0805"/>
      <rect x="6" y="72" width="68" height="2" fill="#0a0805"/>
      
      <!-- Cracks and wear -->
      <rect x="20" y="6" width="1" height="28" fill="#0f0d0a" opacity="0.8"/>
      <rect x="50" y="8" width="1" height="24" fill="#0f0d0a" opacity="0.6"/>
      <rect x="15" y="55" width="15" height="1" fill="#0f0d0a" opacity="0.7"/>
      <rect x="55" y="60" width="12" height="1" fill="#0f0d0a" opacity="0.5"/>
      
      <!-- Moss and aging effects -->
      <rect x="8" y="68" width="6" height="4" fill="#1a3d1a" opacity="0.3"/>
      <rect x="60" y="72" width="8" height="2" fill="#1a3d1a" opacity="0.2"/>
      <rect x="25" y="30" width="4" height="4" fill="#1a3d1a" opacity="0.15"/>
    </pattern>
    
    <!-- Atmospheric lighting gradients -->
    <radialGradient id="torchGlow" cx="20%" cy="15%" r="60%">
      <stop offset="0%" stop-color="#ff4500" stop-opacity="0.4"/>
      <stop offset="20%" stop-color="#ff6347" stop-opacity="0.3"/>
      <stop offset="40%" stop-color="#ffa500" stop-opacity="0.2"/>
      <stop offset="70%" stop-color="#daa520" stop-opacity="0.1"/>
      <stop offset="100%" stop-color="#000000" stop-opacity="0.7"/>
    </radialGradient>
    
    <radialGradient id="torchGlow2" cx="80%" cy="20%" r="50%">
      <stop offset="0%" stop-color="#ff6347" stop-opacity="0.3"/>
      <stop offset="30%" stop-color="#ffa500" stop-opacity="0.2"/>
      <stop offset="60%" stop-color="#daa520" stop-opacity="0.1"/>
      <stop offset="100%" stop-color="#000000" stop-opacity="0.6"/>
    </radialGradient>
    
    <!-- Depth gradient -->
    <linearGradient id="depthShadow" x1="0%" y1="0%" x2="100%" y2="100%">
      <stop offset="0%" stop-color="#000000" stop-opacity="0.3"/>
      <stop offset="50%" stop-color="#000000" stop-opacity="0.1"/>
      <stop offset="100%" stop-color="#000000" stop-opacity="0.5"/>
    </linearGradient>
  </defs>
  
  <!-- Base stone wall -->
  <rect width="400" height="400" fill="url(#stoneWall)"/>
  
  <!-- Atmospheric lighting layers -->
  <rect width="400" height="400" fill="url(#torchGlow)"/>
  <rect width="400" height="400" fill="url(#torchGlow2)"/>
  <rect width="400" height="400" fill="url(#depthShadow)"/>
  
  <!-- Additional atmospheric particles/dust -->
  <circle cx="100" cy="150" r="1" fill="#daa520" opacity="0.3"/>
  <circle cx="300" cy="200" r="1.5" fill="#ffa500" opacity="0.2"/>
  <circle cx="200" cy="300" r="1" fill="#ff6347" opacity="0.15"/>
  <circle cx="350" cy="100" r="1" fill="#daa520" opacity="0.25"/>
</svg>

