<svg xmlns="http://www.w3.org/2000/svg" width="96" height="96" viewBox="0 0 96 96">
  <defs>
    <linearGradient id="woodGrad" x1="0%" y1="0%" x2="100%" y2="100%">
      <stop offset="0%" stop-color="#d97706"/>
      <stop offset="50%" stop-color="#b45309"/>
      <stop offset="100%" stop-color="#92400e"/>
    </linearGradient>
  </defs>
  
  <!-- Upper bow limb -->
  <path d="M35 12 Q30 8 25 12 Q22 16 25 20 Q30 25 35 30 Q40 35 42 40" stroke="url(#woodGrad)" stroke-width="4" fill="none"/>
  <path d="M36 13 Q32 10 28 13 Q26 16 28 19 Q32 23 36 28 Q40 32 41 36" stroke="#d97706" stroke-width="2" fill="none"/>
  
  <!-- Lower bow limb -->
  <path d="M42 56 Q40 61 35 66 Q30 71 25 76 Q22 80 25 84 Q30 88 35 84" stroke="url(#woodGrad)" stroke-width="4" fill="none"/>
  <path d="M41 60 Q40 64 36 68 Q32 73 28 77 Q26 80 28 83 Q32 86 36 83" stroke="#d97706" stroke-width="2" fill="none"/>
  
  <!-- Bow tips (reinforced) -->
  <ellipse cx="26" cy="12" rx="3" ry="2" fill="#374151"/>
  <ellipse cx="26" cy="84" rx="3" ry="2" fill="#374151"/>
  <ellipse cx="26" cy="12" rx="2" ry="1.5" fill="#4b5563"/>
  <ellipse cx="26" cy="84" rx="2" ry="1.5" fill="#4b5563"/>
  
  <!-- Bowstring -->
  <path d="M26 14 Q45 20 48 48 Q45 76 26 82" stroke="#f8fafc" stroke-width="1.5" fill="none"/>
  
  <!-- Arrow nocked -->
  <path d="M26 48 L65 45" stroke="#d97706" stroke-width="2" fill="none"/>
  <path d="M65 45 L70 42 L70 48 Z" fill="#4b5563"/>
  <path d="M26 48 L30 46 L30 50 Z" fill="#fef3c7"/>
  
  <!-- Arrow fletching -->
  <path d="M28 46 L32 44 L30 48 L32 52 L28 50 Z" fill="#dc2626"/>
  <path d="M29 46 L31 45 L30 48 L31 51 L29 50 Z" fill="#ef4444"/>
  
  <!-- Handle/grip (wrapped) -->
  <ellipse cx="42" cy="48" rx="3" ry="8" fill="#7c2d12"/>
  <ellipse cx="42" cy="48" rx="2" ry="7" fill="#92400e"/>
  
  <!-- Grip wrapping -->
  <path d="M40 42 Q42 43 44 42" stroke="#451a03" stroke-width="1" fill="none"/>
  <path d="M40 46 Q42 47 44 46" stroke="#451a03" stroke-width="1" fill="none"/>
  <path d="M40 50 Q42 51 44 50" stroke="#451a03" stroke-width="1" fill="none"/>
  <path d="M40 54 Q42 55 44 54" stroke="#451a03" stroke-width="1" fill="none"/>
  
  <!-- Sight pin -->
  <circle cx="42" cy="40" r="1" fill="#d4af37"/>
  
  <!-- Quiver visible -->
  <rect x="75" y="20" width="8" height="30" fill="#92400e"/>
  <rect x="76" y="21" width="6" height="28" fill="#b45309"/>
  
  <!-- Arrow shafts in quiver -->
  <rect x="77" y="22" width="1" height="15" fill="#d97706"/>
  <rect x="79" y="25" width="1" height="12" fill="#d97706"/>
  <rect x="81" y="23" width="1" height="14" fill="#d97706"/>
  
  <!-- Quiver strap -->
  <path d="M79 50 Q85 55 82 65" stroke="#7c2d12" stroke-width="2" fill="none"/>
</svg>

