<svg xmlns="http://www.w3.org/2000/svg" width="96" height="96" viewBox="0 0 96 96">
  <defs>
    <linearGradient id="bladeGrad" x1="0%" y1="0%" x2="100%" y2="100%">
      <stop offset="0%" stop-color="#f8fafc"/>
      <stop offset="50%" stop-color="#e2e8f0"/>
      <stop offset="100%" stop-color="#cbd5e1"/>
    </linearGradient>
    <radialGradient id="daggerGlow" cx="50%" cy="50%" r="50%">
      <stop offset="0%" stop-color="#059669" stop-opacity="0.3"/>
      <stop offset="100%" stop-color="#10b981" stop-opacity="0.1"/>
    </radialGradient>
  </defs>
  
  <!-- Background glow -->
  <circle cx="48" cy="48" r="45" fill="url(#daggerGlow)" opacity="0.4"/>
  
  <!-- Left dagger -->
  <!-- Blade -->
  <path d="M25 12 L30 12 L32 14 L30 35 L25 35 L23 14 Z" fill="url(#bladeGrad)"/>
  <path d="M26 14 L29 14 L30 16 L29 33 L26 33 L25 16 Z" fill="#f8fafc"/>
  
  <!-- Blade fuller -->
  <rect x="27" y="16" width="1" height="15" fill="#cbd5e1" opacity="0.6"/>
  
  <!-- Cross guard -->
  <ellipse cx="27.5" cy="35" rx="6" ry="2" fill="#374151"/>
  <ellipse cx="27.5" cy="34" rx="5" ry="1.5" fill="#4b5563"/>
  
  <!-- Handle -->
  <rect x="26" y="37" width="3" height="12" fill="#7c2d12"/>
  <rect x="26.5" y="38" width="2" height="10" fill="#92400e"/>
  
  <!-- Handle wrap -->
  <path d="M26 40 L29 40" stroke="#451a03" stroke-width="0.5"/>
  <path d="M26 43 L29 43" stroke="#451a03" stroke-width="0.5"/>
  <path d="M26 46 L29 46" stroke="#451a03" stroke-width="0.5"/>
  
  <!-- Pommel -->
  <ellipse cx="27.5" cy="51" rx="3" ry="2" fill="#059669"/>
  <ellipse cx="27.5" cy="50" rx="2" ry="1.5" fill="#10b981"/>
  
  <!-- Right dagger -->
  <!-- Blade -->
  <path d="M66 12 L71 12 L73 14 L71 35 L66 35 L64 14 Z" fill="url(#bladeGrad)"/>
  <path d="M67 14 L70 14 L71 16 L70 33 L67 33 L66 16 Z" fill="#f8fafc"/>
  
  <!-- Blade fuller -->
  <rect x="68" y="16" width="1" height="15" fill="#cbd5e1" opacity="0.6"/>
  
  <!-- Cross guard -->
  <ellipse cx="68.5" cy="35" rx="6" ry="2" fill="#374151"/>
  <ellipse cx="68.5" cy="34" rx="5" ry="1.5" fill="#4b5563"/>
  
  <!-- Handle -->
  <rect x="67" y="37" width="3" height="12" fill="#7c2d12"/>
  <rect x="67.5" y="38" width="2" height="10" fill="#92400e"/>
  
  <!-- Handle wrap -->
  <path d="M67 40 L70 40" stroke="#451a03" stroke-width="0.5"/>
  <path d="M67 43 L70 43" stroke="#451a03" stroke-width="0.5"/>
  <path d="M67 46 L70 46" stroke="#451a03" stroke-width="0.5"/>
  
  <!-- Pommel -->
  <ellipse cx="68.5" cy="51" rx="3" ry="2" fill="#059669"/>
  <ellipse cx="68.5" cy="50" rx="2" ry="1.5" fill="#10b981"/>
  
  <!-- Poison droplets -->
  <g opacity="0.6">
    <circle cx="27" cy="20" r="1" fill="#10b981"/>
    <circle cx="69" cy="22" r="1" fill="#10b981"/>
    <circle cx="29" cy="25" r="0.8" fill="#059669"/>
    <circle cx="67" cy="28" r="0.8" fill="#059669"/>
  </g>
  
  <!-- Serrated edges -->
  <g opacity="0.8">
    <path d="M23 18 L24 19 L23 20 L24 21 L23 22" stroke="#94a3b8" stroke-width="0.5" fill="none"/>
    <path d="M73 18 L72 19 L73 20 L72 21 L73 22" stroke="#94a3b8" stroke-width="0.5" fill="none"/>
  </g>
  
  <!-- Magical runes -->
  <g opacity="0.7">
    <circle cx="27.5" cy="24" r="0.8" fill="#059669"/>
    <path d="M26 28 L29 28 L27.5 30 Z" fill="#10b981"/>
    <circle cx="68.5" cy="26" r="0.8" fill="#059669"/>
    <path d="M67 30 L70 30 L68.5 32 Z" fill="#10b981"/>
  </g>
  
  <!-- Throwing motion trails -->
  <g opacity="0.3">
    <path d="M20 18 Q18 20 16 18" stroke="#10b981" stroke-width="1" fill="none"/>
    <path d="M76 20 Q78 22 80 20" stroke="#10b981" stroke-width="1" fill="none"/>
    <path d="M18 25 Q16 27 14 25" stroke="#059669" stroke-width="1" fill="none"/>
  </g>
</svg>

