<svg xmlns="http://www.w3.org/2000/svg" width="96" height="96" viewBox="0 0 96 96">
  <!-- Magical aura -->
  <circle cx="48" cy="48" r="45" fill="url(#staffGlow)" opacity="0.2"/>
  
  <defs>
    <radialGradient id="staffGlow" cx="50%" cy="20%" r="60%">
      <stop offset="0%" stop-color="#8b5cf6" stop-opacity="0.6"/>
      <stop offset="50%" stop-color="#c084fc" stop-opacity="0.3"/>
      <stop offset="100%" stop-color="#7c3aed" stop-opacity="0.1"/>
    </radialGradient>
    <radialGradient id="orbGradient" cx="30%" cy="30%" r="70%">
      <stop offset="0%" stop-color="#f3e8ff"/>
      <stop offset="20%" stop-color="#e9d5ff"/>
      <stop offset="60%" stop-color="#c084fc"/>
      <stop offset="100%" stop-color="#8b5cf6"/>
    </radialGradient>
    <linearGradient id="woodGradient" x1="0%" y1="0%" x2="100%" y2="100%">
      <stop offset="0%" stop-color="#d97706"/>
      <stop offset="30%" stop-color="#b45309"/>
      <stop offset="70%" stop-color="#92400e"/>
      <stop offset="100%" stop-color="#451a03"/>
    </linearGradient>
  </defs>
  
  <!-- Crystal orb (large and detailed) -->
  <circle cx="48" cy="20" r="12" fill="url(#orbGradient)"/>
  <circle cx="48" cy="20" r="10" fill="#c084fc" opacity="0.8"/>
  <circle cx="48" cy="20" r="8" fill="#e9d5ff" opacity="0.6"/>
  
  <!-- Orb inner light -->
  <circle cx="45" cy="17" r="3" fill="#f3e8ff" opacity="0.9"/>
  <circle cx="45" cy="17" r="2" fill="#ffffff" opacity="0.7"/>
  
  <!-- Orb magical particles -->
  <g opacity="0.6">
    <circle cx="40" cy="15" r="1" fill="#c084fc"/>
    <circle cx="56" cy="18" r="1.5" fill="#e9d5ff"/>
    <circle cx="52" cy="12" r="1" fill="#f3e8ff"/>
    <circle cx="44" cy="28" r="1" fill="#c084fc"/>
  </g>
  
  <!-- Orb holder/crown -->
  <path d="M36 28 Q42 32 48 30 Q54 32 60 28 L58 34 Q54 36 48 34 Q42 36 38 34 Z" fill="#d4af37"/>
  <path d="M38 29 Q42 31 48 30 Q54 31 58 29 L57 32 Q54 33 48 32 Q42 33 39 32 Z" fill="#fbbf24"/>
  
  <!-- Crown gems -->
  <circle cx="42" cy="30" r="1.5" fill="#dc2626"/>
  <circle cx="48" cy="32" r="1.5" fill="#059669"/>
  <circle cx="54" cy="30" r="1.5" fill="#2563eb"/>
  
  <!-- Staff shaft (detailed) -->
  <rect x="46" y="34" width="4" height="50" fill="url(#woodGradient)"/>
  <rect x="47" y="35" width="2" height="48" fill="#b45309"/>
  
  <!-- Wood grain details -->
  <path d="M47 40 Q48 42 47 44" stroke="#451a03" stroke-width="0.5" fill="none" opacity="0.6"/>
  <path d="M49 45 Q48 47 49 49" stroke="#451a03" stroke-width="0.5" fill="none" opacity="0.6"/>
  <path d="M47 55 Q48 57 47 59" stroke="#451a03" stroke-width="0.5" fill="none" opacity="0.6"/>
  
  <!-- Ornate bands -->
  <ellipse cx="48" cy="42" rx="4" ry="2" fill="#d4af37"/>
  <ellipse cx="48" cy="42" rx="3" ry="1.5" fill="#fbbf24"/>
  
  <ellipse cx="48" cy="55" rx="4" ry="2" fill="#d4af37"/>
  <ellipse cx="48" cy="55" rx="3" ry="1.5" fill="#fbbf24"/>
  
  <ellipse cx="48" cy="68" rx="4" ry="2" fill="#d4af37"/>
  <ellipse cx="48" cy="68" rx="3" ry="1.5" fill="#fbbf24"/>
  
  <!-- Band gems -->
  <circle cx="48" cy="42" r="1" fill="#8b5cf6"/>
  <circle cx="48" cy="55" r="1" fill="#059669"/>
  <circle cx="48" cy="68" r="1" fill="#dc2626"/>
  
  <!-- Bottom cap/ferrule -->
  <ellipse cx="48" cy="82" rx="6" ry="3" fill="#d4af37"/>
  <ellipse cx="48" cy="81" rx="5" ry="2.5" fill="#fbbf24"/>
  <rect x="46" y="80" width="4" height="4" fill="#f59e0b"/>
  
  <!-- Magical energy wisps -->
  <g opacity="0.4">
    <path d="M35 22 Q38 25 35 28" stroke="#c084fc" stroke-width="1.5" fill="none"/>
    <path d="M61 26 Q58 29 61 32" stroke="#e9d5ff" stroke-width="1" fill="none"/>
    <path d="M33 18 Q36 21 33 24" stroke="#8b5cf6" stroke-width="1" fill="none"/>
  </g>
  
  <!-- Runes on shaft -->
  <g opacity="0.7">
    <path d="M44 48 L46 46 L48 48 L46 50 Z" fill="#8b5cf6"/>
    <circle cx="48" cy="62" r="1" fill="#c084fc"/>
    <path d="M49 75 L51 73 L53 75 L51 77 Z" fill="#e9d5ff"/>
  </g>
</svg>

