<svg xmlns="http://www.w3.org/2000/svg" width="96" height="96" viewBox="0 0 96 96">
  <!-- Background glow -->
  <circle cx="48" cy="48" r="45" fill="url(#swordGlow)" opacity="0.3"/>
  
  <defs>
    <linearGradient id="bladeGradient" x1="0%" y1="0%" x2="100%" y2="100%">
      <stop offset="0%" stop-color="#f8fafc"/>
      <stop offset="30%" stop-color="#e2e8f0"/>
      <stop offset="70%" stop-color="#cbd5e1"/>
      <stop offset="100%" stop-color="#94a3b8"/>
    </linearGradient>
    <radialGradient id="swordGlow" cx="50%" cy="50%" r="50%">
      <stop offset="0%" stop-color="#fbbf24" stop-opacity="0.4"/>
      <stop offset="100%" stop-color="#f59e0b" stop-opacity="0.1"/>
    </radialGradient>
    <linearGradient id="goldGradient" x1="0%" y1="0%" x2="100%" y2="100%">
      <stop offset="0%" stop-color="#fbbf24"/>
      <stop offset="50%" stop-color="#f59e0b"/>
      <stop offset="100%" stop-color="#d97706"/>
    </linearGradient>
  </defs>
  
  <!-- Main blade -->
  <path d="M46 12 L50 12 L52 14 L50 38 L46 38 L44 14 Z" fill="url(#bladeGradient)"/>
  <path d="M47 14 L49 14 L50 16 L49 36 L47 36 L46 16 Z" fill="#f8fafc"/>
  
  <!-- Blade fuller (blood groove) -->
  <rect x="47.5" y="16" width="1" height="20" fill="#cbd5e1" opacity="0.6"/>
  
  <!-- Blade edge highlight -->
  <path d="M44 14 L46 16 L46 36 L44 38" stroke="#f8fafc" stroke-width="0.5" fill="none"/>
  <path d="M52 14 L50 16 L50 36 L52 38" stroke="#94a3b8" stroke-width="0.5" fill="none"/>
  
  <!-- Cross guard (ornate) -->
  <path d="M30 38 L66 38 L64 42 L62 44 L34 44 L32 42 Z" fill="url(#goldGradient)"/>
  <path d="M32 39 L64 39 L62 41 L34 41 Z" fill="#fbbf24"/>
  
  <!-- Cross guard decorations -->
  <circle cx="36" cy="40" r="2" fill="#dc2626"/>
  <circle cx="60" cy="40" r="2" fill="#dc2626"/>
  <circle cx="36" cy="40" r="1" fill="#ef4444"/>
  <circle cx="60" cy="40" r="1" fill="#ef4444"/>
  
  <!-- Handle/grip -->
  <rect x="45" y="44" width="6" height="16" fill="#7c2d12"/>
  <rect x="46" y="45" width="4" height="14" fill="#92400e"/>
  
  <!-- Handle wrap pattern -->
  <path d="M46 47 L50 47" stroke="#451a03" stroke-width="0.5"/>
  <path d="M46 50 L50 50" stroke="#451a03" stroke-width="0.5"/>
  <path d="M46 53 L50 53" stroke="#451a03" stroke-width="0.5"/>
  <path d="M46 56 L50 56" stroke="#451a03" stroke-width="0.5"/>
  
  <!-- Pommel (ornate) -->
  <ellipse cx="48" cy="62" rx="6" ry="4" fill="url(#goldGradient)"/>
  <ellipse cx="48" cy="61" rx="5" ry="3" fill="#fbbf24"/>
  <circle cx="48" cy="61" r="2" fill="#dc2626"/>
  <circle cx="48" cy="61" r="1" fill="#ef4444"/>
  
  <!-- Mystical runes on blade -->
  <g opacity="0.6">
    <path d="M47 20 L49 20 L48 22 Z" fill="#3b82f6"/>
    <circle cx="48" cy="26" r="1" fill="#3b82f6"/>
    <path d="M47 30 L49 30 L48 32 Z" fill="#3b82f6"/>
  </g>
  
  <!-- Magical aura lines -->
  <g opacity="0.4">
    <path d="M42 20 Q44 22 42 24" stroke="#fbbf24" stroke-width="1" fill="none"/>
    <path d="M54 24 Q52 26 54 28" stroke="#fbbf24" stroke-width="1" fill="none"/>
    <path d="M41 32 Q43 34 41 36" stroke="#fbbf24" stroke-width="1" fill="none"/>
  </g>
</svg>

