<?xml version="1.0" encoding="UTF-8"?>
<svg version="1.1" xmlns="http://www.w3.org/2000/svg" width="374" height="317">
<path d="M0 0 C123.42 0 246.84 0 374 0 C374 104.61 374 209.22 374 317 C250.58 317 127.16 317 0 317 C0 212.39 0 107.78 0 0 Z " fill="#969696" transform="translate(0,0)"/>
<path d="M0 0 C29.7 0 59.4 0 90 0 C90 4.95 90 9.9 90 15 C94.95 15 99.9 15 105 15 C105 19.95 105 24.9 105 30 C109.95 30 114.9 30 120 30 C120 39.9 120 49.8 120 60 C124.95 60 129.9 60 135 60 C135 79.8 135 99.6 135 120 C130.05 120 125.1 120 120 120 C120 134.85 120 149.7 120 165 C124.95 165 129.9 165 135 165 C135 169.95 135 174.9 135 180 C139.95 180 144.9 180 150 180 C150 199.8 150 219.6 150 240 C154.95 240 159.9 240 165 240 C165 249.9 165 259.8 165 270 C155.1 270 145.2 270 135 270 C135 265.05 135 260.1 135 255 C125.1 255 115.2 255 105 255 C105 259.95 105 264.9 105 270 C95.1 270 85.2 270 75 270 C75 265.05 75 260.1 75 255 C60.15 255 45.3 255 30 255 C30 259.95 30 264.9 30 270 C20.1 270 10.2 270 0 270 C0 265.05 0 260.1 0 255 C-14.85 255 -29.7 255 -45 255 C-45 250.05 -45 245.1 -45 240 C-49.95 240 -54.9 240 -60 240 C-60 235.05 -60 230.1 -60 225 C-64.95 225 -69.9 225 -75 225 C-75 210.15 -75 195.3 -75 180 C-70.05 180 -65.1 180 -60 180 C-60 175.05 -60 170.1 -60 165 C-55.05 165 -50.1 165 -45 165 C-45 160.05 -45 155.1 -45 150 C-40.05 150 -35.1 150 -30 150 C-30 145.05 -30 140.1 -30 135 C-34.95 135 -39.9 135 -45 135 C-45 130.05 -45 125.1 -45 120 C-49.95 120 -54.9 120 -60 120 C-60 105.15 -60 90.3 -60 75 C-64.95 75 -69.9 75 -75 75 C-75 70.05 -75 65.1 -75 60 C-70.05 60 -65.1 60 -60 60 C-60 55.05 -60 50.1 -60 45 C-55.05 45 -50.1 45 -45 45 C-45 40.05 -45 35.1 -45 30 C-40.05 30 -35.1 30 -30 30 C-30 25.05 -30 20.1 -30 15 C-25.05 15 -20.1 15 -15 15 C-15 19.95 -15 24.9 -15 30 C-10.05 30 -5.1 30 0 30 C0 20.1 0 10.2 0 0 Z " fill="#3A3D47" transform="translate(202,40)"/>
<path d="M0 0 C4.95 0 9.9 0 15 0 C15 9.9 15 19.8 15 30 C19.95 30 24.9 30 30 30 C30 25.05 30 20.1 30 15 C34.95 15 39.9 15 45 15 C45 29.85 45 44.7 45 60 C40.05 60 35.1 60 30 60 C30 55.05 30 50.1 30 45 C25.05 45 20.1 45 15 45 C15 49.95 15 54.9 15 60 C10.05 60 5.1 60 0 60 C0 64.95 0 69.9 0 75 C-4.95 75 -9.9 75 -15 75 C-15 79.95 -15 84.9 -15 90 C-19.95 90 -24.9 90 -30 90 C-30 94.95 -30 99.9 -30 105 C-25.05 105 -20.1 105 -15 105 C-15 129.75 -15 154.5 -15 180 C-34.8 180 -54.6 180 -75 180 C-75 175.05 -75 170.1 -75 165 C-84.9 165 -94.8 165 -105 165 C-105 160.05 -105 155.1 -105 150 C-109.95 150 -114.9 150 -120 150 C-120 145.05 -120 140.1 -120 135 C-124.95 135 -129.9 135 -135 135 C-135 125.1 -135 115.2 -135 105 C-139.95 105 -144.9 105 -150 105 C-150 85.2 -150 65.4 -150 45 C-130.2 45 -110.4 45 -90 45 C-90 49.95 -90 54.9 -90 60 C-80.1 60 -70.2 60 -60 60 C-60 55.05 -60 50.1 -60 45 C-64.95 45 -69.9 45 -75 45 C-75 35.1 -75 25.2 -75 15 C-65.1 15 -55.2 15 -45 15 C-45 19.95 -45 24.9 -45 30 C-40.05 30 -35.1 30 -30 30 C-30 25.05 -30 20.1 -30 15 C-20.1 15 -10.2 15 0 15 C0 10.05 0 5.1 0 0 Z " fill="#6DFED2" transform="translate(157,10)"/>
<path d="M0 0 C14.85 0 29.7 0 45 0 C45 4.95 45 9.9 45 15 C49.95 15 54.9 15 60 15 C60 19.95 60 24.9 60 30 C35.25 30 10.5 30 -15 30 C-15 25.05 -15 20.1 -15 15 C-10.05 15 -5.1 15 0 15 C0 10.05 0 5.1 0 0 Z " fill="#252832" transform="translate(247,130)"/>
<path d="M0 0 C4.95 0 9.9 0 15 0 C15 14.85 15 29.7 15 45 C5.1 45 -4.8 45 -15 45 C-15 49.95 -15 54.9 -15 60 C-19.95 60 -24.9 60 -30 60 C-30 45.15 -30 30.3 -30 15 C-25.05 15 -20.1 15 -15 15 C-15 19.95 -15 24.9 -15 30 C-10.05 30 -5.1 30 0 30 C0 20.1 0 10.2 0 0 Z " fill="#FFFFFF" transform="translate(337,10)"/>
<path d="M0 0 C4.95 0 9.9 0 15 0 C15 9.9 15 19.8 15 30 C19.95 30 24.9 30 30 30 C30 25.05 30 20.1 30 15 C34.95 15 39.9 15 45 15 C45 29.85 45 44.7 45 60 C40.05 60 35.1 60 30 60 C30 55.05 30 50.1 30 45 C20.1 45 10.2 45 0 45 C0 30.15 0 15.3 0 0 Z " fill="#FFFFFF" transform="translate(157,10)"/>
<path d="M0 0 C19.8 0 39.6 0 60 0 C60 4.95 60 9.9 60 15 C64.95 15 69.9 15 75 15 C75 19.95 75 24.9 75 30 C65.1 30 55.2 30 45 30 C45 25.05 45 20.1 45 15 C30.15 15 15.3 15 0 15 C0 10.05 0 5.1 0 0 Z " fill="#252832" transform="translate(232,280)"/>
<path d="M0 0 C4.95 0 9.9 0 15 0 C15 4.95 15 9.9 15 15 C19.95 15 24.9 15 30 15 C30 24.9 30 34.8 30 45 C20.1 45 10.2 45 0 45 C0 40.05 0 35.1 0 30 C-4.95 30 -9.9 30 -15 30 C-15 25.05 -15 20.1 -15 15 C-10.05 15 -5.1 15 0 15 C0 10.05 0 5.1 0 0 Z " fill="#252832" transform="translate(337,265)"/>
<path d="M0 0 C19.8 0 39.6 0 60 0 C60 4.95 60 9.9 60 15 C40.2 15 20.4 15 0 15 C0 10.05 0 5.1 0 0 Z " fill="#B6FFD3" transform="translate(82,175)"/>
<path d="M0 0 C9.9 0 19.8 0 30 0 C30 9.9 30 19.8 30 30 C20.1 30 10.2 30 0 30 C0 20.1 0 10.2 0 0 Z " fill="#252832" transform="translate(292,115)"/>
<path d="M0 0 C9.9 0 19.8 0 30 0 C30 9.9 30 19.8 30 30 C20.1 30 10.2 30 0 30 C0 20.1 0 10.2 0 0 Z " fill="#252832" transform="translate(217,115)"/>
<path d="M0 0 C4.95 0 9.9 0 15 0 C15 19.8 15 39.6 15 60 C10.05 60 5.1 60 0 60 C0 40.2 0 20.4 0 0 Z " fill="#B6FFD3" transform="translate(7,55)"/>
<path d="M0 0 C9.9 0 19.8 0 30 0 C30 9.9 30 19.8 30 30 C20.1 30 10.2 30 0 30 C0 20.1 0 10.2 0 0 Z " fill="#6DFED2" transform="translate(82,25)"/>
<path d="M0 0 C4.95 0 9.9 0 15 0 C15 9.9 15 19.8 15 30 C5.1 30 -4.8 30 -15 30 C-15 25.05 -15 20.1 -15 15 C-10.05 15 -5.1 15 0 15 C0 10.05 0 5.1 0 0 Z " fill="#252832" transform="translate(142,85)"/>
<path d="M0 0 C9.9 0 19.8 0 30 0 C30 4.95 30 9.9 30 15 C20.1 15 10.2 15 0 15 C0 10.05 0 5.1 0 0 Z " fill="#252832" transform="translate(202,295)"/>
<path d="M0 0 C9.9 0 19.8 0 30 0 C30 4.95 30 9.9 30 15 C20.1 15 10.2 15 0 15 C0 10.05 0 5.1 0 0 Z " fill="#B6FFD3" transform="translate(52,160)"/>
<path d="M0 0 C4.95 0 9.9 0 15 0 C15 9.9 15 19.8 15 30 C10.05 30 5.1 30 0 30 C0 20.1 0 10.2 0 0 Z " fill="#969696" transform="translate(127,115)"/>
<path d="M0 0 C4.95 0 9.9 0 15 0 C15 9.9 15 19.8 15 30 C10.05 30 5.1 30 0 30 C0 20.1 0 10.2 0 0 Z " fill="#B6FFD3" transform="translate(22,115)"/>
<path d="M0 0 C4.95 0 9.9 0 15 0 C15 4.95 15 9.9 15 15 C10.05 15 5.1 15 0 15 C0 10.05 0 5.1 0 0 Z " fill="#FFFFFF" transform="translate(262,190)"/>
<path d="M0 0 C4.95 0 9.9 0 15 0 C15 4.95 15 9.9 15 15 C10.05 15 5.1 15 0 15 C0 10.05 0 5.1 0 0 Z " fill="#FFFFFF" transform="translate(277,175)"/>
<path d="M0 0 C4.95 0 9.9 0 15 0 C15 4.95 15 9.9 15 15 C10.05 15 5.1 15 0 15 C0 10.05 0 5.1 0 0 Z " fill="#FFFFFF" transform="translate(247,175)"/>
<path d="M0 0 C4.95 0 9.9 0 15 0 C15 4.95 15 9.9 15 15 C10.05 15 5.1 15 0 15 C0 10.05 0 5.1 0 0 Z " fill="#B6FFD3" transform="translate(37,145)"/>
<path d="M0 0 C4.95 0 9.9 0 15 0 C15 4.95 15 9.9 15 15 C10.05 15 5.1 15 0 15 C0 10.05 0 5.1 0 0 Z " fill="#FFFFFF" transform="translate(292,130)"/>
<path d="M0 0 C4.95 0 9.9 0 15 0 C15 4.95 15 9.9 15 15 C10.05 15 5.1 15 0 15 C0 10.05 0 5.1 0 0 Z " fill="#FFFFFF" transform="translate(232,130)"/>
<path d="M0 0 C4.95 0 9.9 0 15 0 C15 4.95 15 9.9 15 15 C10.05 15 5.1 15 0 15 C0 10.05 0 5.1 0 0 Z " fill="#252832" transform="translate(157,70)"/>
<path d="M0 0 C4.95 0 9.9 0 15 0 C15 4.95 15 9.9 15 15 C10.05 15 5.1 15 0 15 C0 10.05 0 5.1 0 0 Z " fill="#252832" transform="translate(97,40)"/>
</svg>
