<svg xmlns="http://www.w3.org/2000/svg" width="96" height="96" viewBox="0 0 96 96">
  <!-- Background circle -->
  <circle cx="48" cy="48" r="46" fill="#4a5568" stroke="#9ca3af" stroke-width="2" opacity="0.8"/>
  
  <!-- Helmet/hair -->
  <path d="M20 25 L76 25 L74 35 L22 35 Z" fill="#4a5568"/>
  <path d="M22 26 L74 26 L73 33 L23 33 Z" fill="#6b7280"/>
  <rect x="26" y="28" width="44" height="3" fill="#9ca3af"/>
  
  <!-- Helmet horns -->
  <path d="M25 22 L30 18 L32 25" fill="#374151"/>
  <path d="M64 25 L66 18 L71 22" fill="#374151"/>
  <path d="M26 22 L29 19 L31 24" fill="#4b5563"/>
  <path d="M65 24 L67 19 L70 22" fill="#4b5563"/>
  
  <!-- Face -->
  <ellipse cx="48" cy="42" rx="18" ry="16" fill="#fbbf24"/>
  <ellipse cx="48" cy="42" rx="16" ry="14" fill="#fcd34d"/>
  
  <!-- Eyes (fierce) -->
  <ellipse cx="42" cy="38" rx="3" ry="2" fill="#ffffff"/>
  <ellipse cx="54" cy="38" rx="3" ry="2" fill="#ffffff"/>
  <circle cx="42" cy="38" r="1.5" fill="#7c2d12"/>
  <circle cx="54" cy="38" r="1.5" fill="#7c2d12"/>
  
  <!-- Bushy eyebrows -->
  <path d="M38 35 Q42 33 46 35" stroke="#92400e" stroke-width="2" fill="none"/>
  <path d="M50 35 Q54 33 58 35" stroke="#92400e" stroke-width="2" fill="none"/>
  
  <!-- Large nose -->
  <path d="M46 42 L50 42 L48 48 Z" fill="#f59e0b"/>
  <path d="M47 43 L49 43 L48 46 Z" fill="#fbbf24"/>
  
  <!-- Epic beard -->
  <path d="M28 48 Q20 52 18 60 Q16 68 20 75 Q25 80 35 78 L40 76 L48 74 L56 76 L61 78 Q71 80 76 75 Q80 68 78 60 Q76 52 68 48 L65 50 L58 52 L48 54 L38 52 L31 50 Z" fill="#92400e"/>
  <path d="M30 50 Q24 53 22 58 Q20 64 23 70 Q27 74 35 73 L40 72 L48 71 L56 72 L61 73 Q69 74 73 70 Q76 64 74 58 Q72 53 66 50 L62 51 L56 52 L48 53 L40 52 L34 51 Z" fill="#b45309"/>
  
  <!-- Beard braids -->
  <rect x="38" y="65" width="3" height="8" fill="#7c2d12"/>
  <rect x="48" y="68" width="3" height="6" fill="#7c2d12"/>
  <rect x="58" y="65" width="3" height="8" fill="#7c2d12"/>
  
  <!-- Chain mail -->
  <path d="M32 76 L64 76 L62 88 L34 88 Z" fill="#374151"/>
  <rect x="34" y="78" width="28" height="8" fill="#4b5563"/>
  
  <!-- Chain pattern -->
  <g opacity="0.7">
    <circle cx="38" cy="80" r="0.8" fill="#9ca3af"/>
    <circle cx="42" cy="80" r="0.8" fill="#9ca3af"/>
    <circle cx="46" cy="80" r="0.8" fill="#9ca3af"/>
    <circle cx="50" cy="80" r="0.8" fill="#9ca3af"/>
    <circle cx="54" cy="80" r="0.8" fill="#9ca3af"/>
    <circle cx="58" cy="80" r="0.8" fill="#9ca3af"/>
  </g>
  
  <!-- Axe handle visible -->
  <rect x="70" y="50" width="4" height="25" fill="#92400e"/>
  <rect x="71" y="51" width="2" height="23" fill="#b45309"/>
  
  <!-- Belt with buckle -->
  <rect x="35" y="82" width="26" height="4" fill="#7c2d12"/>
  <rect x="36" y="83" width="24" height="2" fill="#92400e"/>
  <circle cx="48" cy="84" r="3" fill="#d4af37"/>
  <circle cx="48" cy="84" r="2" fill="#fbbf24"/>
</svg>

