<svg xmlns="http://www.w3.org/2000/svg" width="96" height="96" viewBox="0 0 96 96">
  <!-- Background circle -->
  <circle cx="48" cy="48" r="46" fill="#1a5c1a" stroke="#10b981" stroke-width="2" opacity="0.8"/>
  
  <!-- Hair base (flowing) -->
  <path d="M20 20 Q15 25 18 35 Q20 45 25 48 L28 50 L24 55 L26 60 L30 58 L35 52 L40 48 L45 46 L50 46 L55 48 L60 52 L65 58 L70 60 L72 55 L68 50 L71 48 Q76 45 78 35 Q81 25 76 20 Q70 15 60 16 Q48 14 36 16 Q26 15 20 20 Z" fill="#f59e0b"/>
  <path d="M22 22 Q18 26 20 34 Q22 42 26 45 L29 47 L26 52 L28 57 L32 55 L36 50 L41 47 L46 45 L50 45 L54 47 L59 50 L64 55 L68 57 L70 52 L67 47 L70 45 Q74 42 76 34 Q78 26 74 22 Q69 18 60 19 Q48 17 36 19 Q27 18 22 22 Z" fill="#fbbf24"/>
  
  <!-- Hair highlights -->
  <path d="M25 25 Q30 23 35 24 Q40 22 45 24 Q50 22 55 24 Q60 23 65 25" stroke="#fcd34d" stroke-width="2" fill="none"/>
  <path d="M28 35 Q33 33 38 34 Q43 32 48 34 Q53 32 58 34" stroke="#fcd34d" stroke-width="1" fill="none"/>
  
  <!-- Face -->
  <ellipse cx="48" cy="42" rx="16" ry="18" fill="#fef3c7"/>
  <ellipse cx="48" cy="42" rx="14" ry="16" fill="#fef9e7"/>
  
  <!-- Pointed ears (signature elf feature) -->
  <path d="M20 38 Q18 35 20 32 Q22 30 26 32 Q28 35 26 38 Q24 40 22 39 Z" fill="#fef3c7"/>
  <path d="M70 38 Q72 35 70 32 Q68 30 64 32 Q62 35 64 38 Q66 40 68 39 Z" fill="#fef3c7"/>
  <path d="M21 37 Q19 35 21 33 Q23 32 25 34 Q26 36 24 37 Z" fill="#fef9e7"/>
  <path d="M69 37 Q71 35 69 33 Q67 32 65 34 Q64 36 66 37 Z" fill="#fef9e7"/>
  
  <!-- Eyes (bright green, elven) -->
  <ellipse cx="42" cy="38" rx="4" ry="3" fill="#ffffff"/>
  <ellipse cx="54" cy="38" rx="4" ry="3" fill="#ffffff"/>
  <ellipse cx="42" cy="38" rx="2.5" ry="2" fill="#10b981"/>
  <ellipse cx="54" cy="38" rx="2.5" ry="2" fill="#10b981"/>
  <circle cx="42" cy="37.5" r="0.8" fill="#ffffff"/>
  <circle cx="54" cy="37.5" r="0.8" fill="#ffffff"/>
  
  <!-- Eyebrows -->
  <path d="M38 34 Q42 32 46 34" stroke="#d97706" stroke-width="1.5" fill="none"/>
  <path d="M50 34 Q54 32 58 34" stroke="#d97706" stroke-width="1.5" fill="none"/>
  
  <!-- Nose -->
  <path d="M46 42 L50 42 L48 46 Z" fill="#fbbf24" opacity="0.7"/>
  
  <!-- Mouth -->
  <path d="M44 48 Q48 50 52 48" stroke="#d97706" stroke-width="1" fill="none"/>
  
  <!-- Hood/cloak -->
  <path d="M25 55 Q20 58 18 65 L18 80 L25 78 L30 75 L35 72 L40 70 L56 70 L61 72 L66 75 L71 78 L78 80 L78 65 Q76 58 71 55 Q65 52 58 54 L38 54 Q31 52 25 55 Z" fill="#059669"/>
  <path d="M27 57 Q23 59 22 64 L22 77 L27 75 L32 72 L37 70 L41 68 L55 68 L59 70 L64 72 L69 75 L74 77 L74 64 Q73 59 69 57 Q64 55 58 56 L38 56 Q32 55 27 57 Z" fill="#10b981"/>
  
  <!-- Leather armor details -->
  <path d="M38 65 L58 65 L56 78 L40 78 Z" fill="#92400e"/>
  <path d="M40 67 L56 67 L54 76 L42 76 Z" fill="#b45309"/>
  
  <!-- Armor studs -->
  <circle cx="44" cy="70" r="1" fill="#374151"/>
  <circle cx="52" cy="70" r="1" fill="#374151"/>
  <circle cx="48" cy="73" r="1" fill="#374151"/>
  
  <!-- Quiver strap -->
  <path d="M60 58 Q65 60 68 65 Q70 70 68 75" stroke="#92400e" stroke-width="3" fill="none"/>
  <path d="M61 59 Q65 61 67 65 Q68 69 67 73" stroke="#b45309" stroke-width="1" fill="none"/>
  
  <!-- Elven brooch -->
  <circle cx="48" cy="62" r="3" fill="#d4af37"/>
  <path d="M46 60 L48 58 L50 60 L50 64 L48 66 L46 64 Z" fill="#10b981"/>
</svg>

