<svg xmlns="http://www.w3.org/2000/svg" width="96" height="96" viewBox="0 0 96 96">
  <!-- Background circle -->
  <circle cx="48" cy="48" r="46" fill="#2d1b1e" stroke="#d4af37" stroke-width="2" opacity="0.8"/>
  
  <!-- Helmet base -->
  <path d="M20 30 L76 30 L74 50 L22 50 Z" fill="#4a5568"/>
  <path d="M22 28 L74 28 L76 30 L20 30 Z" fill="#718096"/>
  
  <!-- Face visible area -->
  <path d="M28 32 L68 32 L66 46 L30 46 Z" fill="#fbbf24"/>
  <path d="M30 34 L66 34 L64 44 L32 44 Z" fill="#fcd34d"/>
  
  <!-- Eyes with detail -->
  <ellipse cx="38" cy="38" rx="3" ry="2" fill="#ffffff"/>
  <ellipse cx="58" cy="38" rx="3" ry="2" fill="#ffffff"/>
  <circle cx="38" cy="38" r="1.5" fill="#1e40af"/>
  <circle cx="58" cy="38" r="1.5" fill="#1e40af"/>
  <circle cx="38" cy="37.5" r="0.5" fill="#ffffff"/>
  <circle cx="58" cy="37.5" r="0.5" fill="#ffffff"/>
  
  <!-- Nose -->
  <path d="M46 40 L50 40 L48 44 Z" fill="#f59e0b" opacity="0.6"/>
  
  <!-- Mouth -->
  <path d="M44 42 Q48 44 52 42" stroke="#92400e" stroke-width="1" fill="none"/>
  
  <!-- Helmet details -->
  <rect x="24" y="30" width="48" height="3" fill="#718096"/>
  <rect x="26" y="33" width="44" height="1" fill="#9ca3af"/>
  <circle cx="32" cy="31" r="2" fill="#d4af37"/>
  <circle cx="64" cy="31" r="2" fill="#d4af37"/>
  
  <!-- Cheek guards -->
  <path d="M20 35 L28 35 L30 45 L22 45 Z" fill="#4a5568"/>
  <path d="M68 35 L76 35 L74 45 L66 45 Z" fill="#4a5568"/>
  <path d="M20 35 L28 35 L26 37 L22 37 Z" fill="#718096"/>
  <path d="M68 35 L76 35 L74 37 L70 37 Z" fill="#718096"/>
  
  <!-- Armor shoulder pieces -->
  <path d="M10 52 L30 52 L32 68 L12 68 Z" fill="#6b7280"/>
  <path d="M66 52 L86 52 L84 68 L64 68 Z" fill="#6b7280"/>
  <path d="M12 52 L30 52 L28 54 L14 54 Z" fill="#9ca3af"/>
  <path d="M66 52 L84 52 L82 54 L68 54 Z" fill="#9ca3af"/>
  
  <!-- Chain mail visible -->
  <path d="M32 50 L64 50 L62 78 L34 78 Z" fill="#374151"/>
  <rect x="34" y="52" width="28" height="24" fill="#4b5563"/>
  
  <!-- Chain mail pattern -->
  <g opacity="0.6">
    <circle cx="40" cy="56" r="1" fill="#9ca3af"/>
    <circle cx="44" cy="56" r="1" fill="#9ca3af"/>
    <circle cx="48" cy="56" r="1" fill="#9ca3af"/>
    <circle cx="52" cy="56" r="1" fill="#9ca3af"/>
    <circle cx="56" cy="56" r="1" fill="#9ca3af"/>
    <circle cx="42" cy="60" r="1" fill="#9ca3af"/>
    <circle cx="46" cy="60" r="1" fill="#9ca3af"/>
    <circle cx="50" cy="60" r="1" fill="#9ca3af"/>
    <circle cx="54" cy="60" r="1" fill="#9ca3af"/>
  </g>
  
  <!-- Tabard/surcoat -->
  <path d="M36 58 L60 58 L58 76 L38 76 Z" fill="#dc2626"/>
  <path d="M38 60 L58 60 L56 74 L40 74 Z" fill="#ef4444"/>
  
  <!-- Heraldic symbol -->
  <path d="M44 64 L52 64 L50 70 L46 70 Z" fill="#d4af37"/>
  <rect x="47" y="66" width="2" height="6" fill="#fbbf24"/>
  <rect x="45" y="68" width="6" height="2" fill="#fbbf24"/>
</svg>

